<svg width="180" height="31" viewBox="0 0 180 31" fill="none" xmlns="http://www.w3.org/2000/svg">
<path d="M69.9353 19.9267C69.9353 23.0906 68.796 25.7576 66.5492 27.8572C64.5657 29.7125 62.0986 30.7575 59.2199 30.9652L58.7236 31.0004V26.1666L59.1353 26.1203C60.5678 25.9962 61.9119 25.3744 62.9348 24.3626C64.146 23.1641 64.7587 21.6013 64.7587 19.7158C64.7587 17.8302 64.1204 16.2882 62.8598 15.0689C61.8458 14.079 60.5326 13.4535 59.1258 13.2904L58.7236 13.2393V8.52539L59.2151 8.55895C62.113 8.73792 64.5992 9.81652 66.6034 11.7676C68.8135 13.9248 69.9353 16.6701 69.9353 19.9267Z" fill="#FF37AB"/>
<path d="M51.6625 17.1511C51.338 17.9639 51.1753 18.8324 51.1838 19.7078C51.1838 21.5933 51.7981 23.1561 53.0077 24.3546C54.0318 25.3648 55.3752 25.9863 56.8072 26.1123L57.2205 26.1586V31.0004L56.7226 30.9652C53.8503 30.7575 51.3801 29.7141 49.3934 27.8604C47.1466 25.7624 46.0088 23.0938 46.0088 19.9267C46.0088 16.6701 47.1258 13.9248 49.3407 11.7676C51.345 9.81652 53.8295 8.73153 56.7274 8.55895L57.2205 8.52539V13.2393L56.8184 13.2904C55.4116 13.4538 54.0986 14.0793 53.0843 15.0689C52.4704 15.6559 51.986 16.3652 51.6625 17.1511Z" fill="#48E9CE"/>
<path d="M19.0819 30.1512H13.8574V17.6186C13.8711 16.9424 13.7535 16.27 13.5112 15.6388C13.3052 15.1058 12.9887 14.6227 12.5824 14.2214C12.203 13.8523 11.75 13.5675 11.2532 13.3857C10.7571 13.2052 10.2332 13.1133 9.70532 13.114C8.89889 13.1153 8.09878 13.2564 7.34043 13.5311C6.54894 13.819 5.82766 14.2722 5.22447 14.8606V30.1544H0V9.15433H5.22447L5.26596 10.7171C5.61295 10.3768 6.00297 10.0835 6.42606 9.84464C6.88427 9.57887 7.36483 9.35377 7.86223 9.17191C8.35774 8.99068 8.86749 8.85117 9.38617 8.75484C9.8823 8.66062 10.386 8.61195 10.891 8.60943C11.934 8.60578 12.9702 8.77755 13.9564 9.11758C14.9262 9.45098 15.8158 9.98323 16.5686 10.6804C17.3705 11.4406 17.9959 12.368 18.4005 13.3969C18.8601 14.5101 19.0899 15.83 19.0899 17.3565L19.0819 30.1512Z" fill="white"/>
<path d="M43.9452 19.6163C43.9452 19.9566 43.9277 20.3066 43.8925 20.6709C43.8574 21.0353 43.8128 21.4092 43.7649 21.7895H27.0096C27.2039 22.3983 27.4781 22.9787 27.825 23.5153C28.1723 24.0563 28.6076 24.5354 29.1128 24.9326C29.6328 25.3381 30.2147 25.657 30.8362 25.877C31.5184 26.1139 32.2365 26.2307 32.9585 26.2222C33.9224 26.219 34.8789 26.0532 35.7878 25.7316C36.6534 25.4491 37.4548 24.9984 38.1463 24.4053L41.4479 27.7114C39.9947 28.8055 38.5723 29.5762 37.1808 30.0237C35.7559 30.4775 34.2687 30.7045 32.7734 30.6964C30.5776 30.7231 28.4231 30.0971 26.5825 28.8977C24.742 27.6982 23.2979 25.9792 22.433 23.9579C21.859 22.5955 21.5633 21.1317 21.5633 19.653C21.5633 18.1743 21.859 16.7106 22.433 15.3482C22.9939 14.0339 23.8072 12.8427 24.8266 11.8423C25.855 10.8409 27.0607 10.04 28.3819 9.48057C29.7584 8.89565 31.2399 8.59926 32.7351 8.60969C34.19 8.60581 35.6318 8.88362 36.9814 9.42783C38.3085 9.95536 39.5264 10.7247 40.5734 11.6969C41.6564 12.7081 42.5159 13.9352 43.0966 15.2991C43.6774 16.6631 43.9664 18.1337 43.9452 19.6163ZM38.4686 17.5773C38.0945 16.3002 37.3258 15.1746 36.2729 14.3623C35.2541 13.5629 33.9942 13.1341 32.7 13.1462C31.4255 13.1386 30.1867 13.5677 29.1894 14.3623C28.1429 15.1784 27.3787 16.303 27.0048 17.5773H38.4686Z" fill="white"/>
<path d="M91.2235 30.1512H85.999V17.6186C86.0127 16.9424 85.8951 16.27 85.6528 15.6388C85.4468 15.1058 85.1303 14.6227 84.7241 14.2214C84.3441 13.853 83.8913 13.5683 83.3948 13.3857C82.8987 13.2052 82.3748 13.1133 81.8469 13.114C81.0389 13.115 80.2372 13.2561 79.4772 13.5311C78.6871 13.8197 77.967 14.2729 77.3645 14.8606V30.1544H72.1416V9.15432H77.3645L77.4028 10.7171C77.7498 10.3768 78.1398 10.0835 78.5629 9.84463C79.0211 9.57887 79.5016 9.35377 79.999 9.1719C80.4945 8.99047 81.0043 8.85096 81.523 8.75484C82.0191 8.66062 82.5228 8.61195 83.0278 8.60943C84.0708 8.60593 85.107 8.77769 86.0932 9.11757C87.0628 9.45135 87.9524 9.98357 88.7054 10.6804C89.5068 11.4411 90.1321 12.3683 90.5373 13.3968C90.9969 14.5101 91.2267 15.83 91.2267 17.3565L91.2235 30.1512Z" fill="white"/>
<path d="M106.285 29.6801C105.715 30.0347 105.09 30.2923 104.436 30.4423C103.746 30.6102 103.04 30.6954 102.331 30.6964C101.097 30.6964 100.057 30.5451 99.211 30.2425C98.417 29.9762 97.7136 29.4917 97.1813 28.8443C96.6379 28.1385 96.2599 27.3193 96.0754 26.4474C95.8295 25.3263 95.7139 24.1804 95.7307 23.0326V13.8413H92.9717V11.4795C94.5993 10.8266 96.0218 9.74766 97.0903 8.35558C98.1424 6.9707 98.8616 5.17834 99.2477 2.97852H100.952V9.11779H106.25V13.8413H100.952V23.3954C100.938 23.8398 101.006 24.283 101.153 24.7025C101.263 25.0066 101.442 25.2804 101.678 25.5015C101.891 25.6922 102.145 25.8292 102.422 25.9009C102.712 25.976 103.011 26.0131 103.311 26.0112C103.813 25.998 104.313 25.9245 104.798 25.7923C105.342 25.6656 105.85 25.417 106.285 25.0652V29.6801Z" fill="white"/>
<path d="M124.452 11.3337L121.66 15.7664C121.156 15.212 120.589 14.7181 119.971 14.2947C119.43 13.8945 118.778 13.6713 118.104 13.6555C117.723 13.667 117.347 13.7505 116.997 13.9016C116.573 14.0783 116.192 14.3442 115.88 14.6814C115.495 15.0995 115.193 15.5877 114.991 16.1195C114.73 16.8216 114.606 17.5677 114.627 18.3167V30.159H109.396V9.15412H114.621V11.4056C115.174 10.583 115.882 9.87722 116.707 9.3283C117.47 8.84468 118.357 8.59271 119.26 8.60283C120.21 8.61116 121.142 8.86784 121.963 9.34747C122.889 9.87878 123.728 10.5486 124.452 11.3337Z" fill="white"/>
<path d="M131.598 5.48608H126.156V0.0371094H131.598V5.48608ZM131.526 30.1519H126.223V9.11819H131.52L131.526 30.1519Z" fill="white"/>
<path d="M155.223 19.6546C155.23 21.0927 154.977 22.5202 154.478 23.8684C154.008 25.1569 153.301 26.3457 152.394 27.3727C151.497 28.3769 150.409 29.1918 149.194 29.7696C147.921 30.3694 146.529 30.6731 145.122 30.658C144.246 30.6652 143.375 30.5369 142.538 30.2777C141.719 30.0123 140.955 29.5997 140.284 29.0601V30.1499H135.053V0H140.319L140.354 10.1709C141.002 9.66335 141.732 9.27046 142.513 9.00918C143.359 8.71644 144.248 8.56895 145.143 8.57294C146.434 8.57598 147.709 8.86807 148.873 9.42784C150.087 9.99894 151.183 10.7936 152.103 11.7704C153.065 12.7917 153.833 13.9797 154.371 15.2763C154.947 16.6631 155.237 18.1525 155.223 19.6546ZM149.927 19.6546C149.938 18.7516 149.79 17.8536 149.489 17.0021C149.223 16.2441 148.808 15.5467 148.27 14.9503C147.753 14.3849 147.119 13.9389 146.413 13.6432C145.656 13.3319 144.845 13.1769 144.027 13.1878C143.37 13.2055 142.72 13.3219 142.098 13.5329C141.445 13.7256 140.829 14.027 140.276 14.4246V24.522C141.418 25.5638 142.705 26.0847 144.137 26.0847C144.933 26.0894 145.721 25.926 146.449 25.6054C147.15 25.304 147.777 24.8549 148.288 24.2887C148.813 23.6926 149.221 23.0024 149.489 22.2545C149.789 21.421 149.937 20.5405 149.927 19.6546Z" fill="white"/>
<path d="M180 19.6162C180 19.9685 179.982 20.3205 179.946 20.6709C179.91 21.0336 179.868 21.4091 179.819 21.7894H163.063C163.259 22.3981 163.534 22.9783 163.88 23.5152C164.228 24.0563 164.663 24.5353 165.168 24.9326C165.688 25.3388 166.27 25.6577 166.891 25.877C167.574 26.1141 168.292 26.2309 169.014 26.2221C169.978 26.2188 170.934 26.053 171.843 25.7315C172.708 25.4483 173.51 24.9977 174.202 24.4053L177.503 27.7114C176.051 28.8012 174.63 29.5698 173.239 30.0172C171.814 30.4735 170.326 30.7027 168.83 30.6963C165.854 30.7115 162.993 29.5498 160.867 27.4637C159.857 26.4596 159.05 25.2691 158.491 23.9578C157.916 22.5957 157.62 21.1319 157.62 19.653C157.62 18.1741 157.916 16.7103 158.491 15.3481C159.052 14.0338 159.866 12.8426 160.885 11.8423C161.914 10.8415 163.12 10.0407 164.44 9.48052C165.817 8.8956 167.299 8.59922 168.795 8.60964C170.248 8.60638 171.688 8.88418 173.035 9.42778C174.363 9.95454 175.581 10.724 176.627 11.6969C177.711 12.7076 178.571 13.9346 179.152 15.2986C179.733 16.6627 180.022 18.1335 180 19.6162ZM174.524 17.5773C174.149 16.3007 173.38 15.1755 172.328 14.3622C171.309 13.5631 170.049 13.1343 168.755 13.1462C167.481 13.1385 166.242 13.5676 165.245 14.3622C164.198 15.1782 163.433 16.3028 163.058 17.5773H174.524Z" fill="white"/>
</svg>
