<svg width="142" height="133" viewBox="0 0 142 133" fill="none" xmlns="http://www.w3.org/2000/svg">
<path d="M142 67.4693C142 86.1923 135.293 101.975 122.067 114.4C110.39 125.378 95.8676 131.563 78.9214 132.792L76 133V104.395L78.4236 104.121C86.8561 103.386 94.7682 99.7069 100.79 93.7194C107.92 86.6273 111.527 77.3792 111.527 66.221C111.527 55.0629 107.769 45.9377 100.348 38.7227C94.3791 32.8642 86.6488 29.163 78.3672 28.1981L76 27.8955V0L78.8932 0.198581C95.9522 1.25766 110.588 7.64053 122.386 19.1864C135.396 31.9522 142 48.1977 142 67.4693Z" fill="#FF37AB"/>
<path d="M33.2818 51.044C31.3712 55.854 30.4139 60.9938 30.4637 66.1738C30.4637 77.332 34.0803 86.58 41.2007 93.6721C47.2288 99.6504 55.1373 103.328 63.567 104.074L66 104.348V133L63.0692 132.792C46.1605 131.563 31.6191 125.388 19.924 114.419C6.69769 102.003 0 86.2112 0 67.4693C0 48.1977 6.57558 31.9522 19.614 19.1864C31.4125 7.64053 46.0384 1.21984 63.0974 0.198581L66 0V27.8955L63.6328 28.1981C55.3518 29.1651 47.6222 32.866 41.6516 38.7227C38.0374 42.1963 35.1862 46.3935 33.2818 51.044Z" fill="#48E9CE"/>
</svg>
