<svg width="234" height="31" viewBox="0 0 234 31" fill="none" xmlns="http://www.w3.org/2000/svg">
<mask id="path-1-inside-1_2766_184" fill="white">
<path d="M0 0H234V31H0V0Z"/>
</mask>
<path d="M0 31H2V0H0H-2V31H0Z" fill="#FF37AB" mask="url(#path-1-inside-1_2766_184)"/>
<path d="M17.54 27V14.6625H22.5625C23.8575 14.6625 24.855 14.9775 25.555 15.6075C26.255 16.2258 26.605 17.0892 26.605 18.1975C26.605 19.2825 26.255 20.1458 25.555 20.7875C24.855 21.4175 23.8575 21.7325 22.5625 21.7325H18.9925V27H17.54ZM18.9925 20.525H22.4225C23.3208 20.525 23.9975 20.3208 24.4525 19.9125C24.9192 19.5042 25.1525 18.9325 25.1525 18.1975C25.1525 17.4508 24.9192 16.8733 24.4525 16.465C23.9975 16.0567 23.3208 15.8525 22.4225 15.8525H18.9925V20.525ZM31.6967 27.1575C30.915 27.1575 30.2325 26.9767 29.6492 26.615C29.0658 26.2417 28.6108 25.7167 28.2842 25.04C27.9692 24.3633 27.8117 23.5525 27.8117 22.6075C27.8117 21.6508 27.9692 20.8342 28.2842 20.1575C28.6108 19.4808 29.0658 18.9617 29.6492 18.6C30.2325 18.2383 30.915 18.0575 31.6967 18.0575C32.49 18.0575 33.1725 18.2617 33.7442 18.67C34.3275 19.0667 34.7125 19.6092 34.8992 20.2975H34.6892L34.8817 18.215H36.2467C36.2117 18.5533 36.1767 18.8975 36.1417 19.2475C36.1183 19.5858 36.1067 19.9183 36.1067 20.245V27H34.6892V24.935H34.8817C34.695 25.6233 34.31 26.1658 33.7267 26.5625C33.1433 26.9592 32.4667 27.1575 31.6967 27.1575ZM31.9767 26.0025C32.8167 26.0025 33.4817 25.7167 33.9717 25.145C34.4617 24.5617 34.7067 23.7158 34.7067 22.6075C34.7067 21.4875 34.4617 20.6417 33.9717 20.07C33.4817 19.4867 32.8167 19.195 31.9767 19.195C31.1483 19.195 30.4833 19.4867 29.9817 20.07C29.4917 20.6417 29.2467 21.4875 29.2467 22.6075C29.2467 23.7158 29.4917 24.5617 29.9817 25.145C30.4833 25.7167 31.1483 26.0025 31.9767 26.0025ZM38.8123 27V20.3325C38.8123 19.9825 38.8007 19.6267 38.7773 19.265C38.7657 18.9033 38.7423 18.5533 38.7073 18.215H40.0723L40.2473 20.35L40.0023 20.3675C40.119 19.8425 40.3232 19.4108 40.6148 19.0725C40.9065 18.7342 41.2507 18.4833 41.6473 18.32C42.044 18.145 42.4582 18.0575 42.8898 18.0575C43.0648 18.0575 43.2165 18.0633 43.3448 18.075C43.4848 18.0867 43.6132 18.1158 43.7298 18.1625L43.7123 19.4225C43.5373 19.3642 43.374 19.3292 43.2223 19.3175C43.0823 19.2942 42.919 19.2825 42.7323 19.2825C42.219 19.2825 41.7698 19.405 41.3848 19.65C41.0115 19.895 40.7257 20.21 40.5273 20.595C40.3407 20.98 40.2473 21.3883 40.2473 21.82V27H38.8123ZM48.7812 27.1575C47.9179 27.1575 47.2587 26.9125 46.8037 26.4225C46.3487 25.9208 46.1212 25.1683 46.1212 24.165V19.3175H44.4062V18.215H46.1212V15.8175L47.5387 15.415V18.215H50.0587V19.3175H47.5387V24.0075C47.5387 24.7075 47.6554 25.2092 47.8887 25.5125C48.1337 25.8042 48.4954 25.95 48.9737 25.95C49.1954 25.95 49.3937 25.9325 49.5687 25.8975C49.7437 25.8508 49.9012 25.7983 50.0412 25.74V26.93C49.8779 27 49.6795 27.0525 49.4462 27.0875C49.2245 27.1342 49.0029 27.1575 48.7812 27.1575ZM59.9523 27.1575C59.1123 27.1575 58.3773 26.9767 57.7473 26.615C57.129 26.2417 56.6507 25.7167 56.3123 25.04C55.974 24.3517 55.8048 23.5408 55.8048 22.6075C55.8048 21.6625 55.974 20.8517 56.3123 20.175C56.6507 19.4983 57.129 18.9792 57.7473 18.6175C58.3773 18.2442 59.1123 18.0575 59.9523 18.0575C60.804 18.0575 61.539 18.2442 62.1573 18.6175C62.7873 18.9792 63.2715 19.4983 63.6098 20.175C63.9598 20.8517 64.1348 21.6625 64.1348 22.6075C64.1348 23.5408 63.9598 24.3517 63.6098 25.04C63.2715 25.7167 62.7873 26.2417 62.1573 26.615C61.539 26.9767 60.804 27.1575 59.9523 27.1575ZM59.9523 26.0025C60.7923 26.0025 61.4573 25.7167 61.9473 25.145C62.4373 24.5617 62.6823 23.7158 62.6823 22.6075C62.6823 21.4875 62.4315 20.6417 61.9298 20.07C61.4398 19.4867 60.7807 19.195 59.9523 19.195C59.124 19.195 58.4648 19.4867 57.9748 20.07C57.4848 20.6417 57.2398 21.4875 57.2398 22.6075C57.2398 23.7158 57.4848 24.5617 57.9748 25.145C58.4648 25.7167 59.124 26.0025 59.9523 26.0025ZM66.7145 27V19.3175H64.9995V18.215H67.0995L66.7145 18.5825V17.1125C66.7145 16.1208 66.9653 15.3625 67.467 14.8375C67.9686 14.3125 68.6861 14.05 69.6195 14.05C69.8528 14.05 70.092 14.0733 70.337 14.12C70.5936 14.155 70.8036 14.2075 70.967 14.2775V15.45C70.827 15.3917 70.652 15.345 70.442 15.31C70.2436 15.2633 70.0395 15.24 69.8295 15.24C69.4678 15.24 69.1586 15.3158 68.902 15.4675C68.6453 15.6075 68.4528 15.8233 68.3245 16.115C68.1961 16.4067 68.132 16.78 68.132 17.235V18.5125L67.9045 18.215H70.582V19.3175H68.132V27H66.7145ZM79.8505 27.1575C78.9872 27.1575 78.328 26.9125 77.873 26.4225C77.418 25.9208 77.1905 25.1683 77.1905 24.165V19.3175H75.4755V18.215H77.1905V15.8175L78.608 15.415V18.215H81.128V19.3175H78.608V24.0075C78.608 24.7075 78.7247 25.2092 78.958 25.5125C79.203 25.8042 79.5647 25.95 80.043 25.95C80.2647 25.95 80.463 25.9325 80.638 25.8975C80.813 25.8508 80.9705 25.7983 81.1105 25.74V26.93C80.9472 27 80.7489 27.0525 80.5155 27.0875C80.2939 27.1342 80.0722 27.1575 79.8505 27.1575ZM82.8537 27V14.12H84.2712V20.1575H84.0437C84.2887 19.4692 84.697 18.95 85.2687 18.6C85.852 18.2383 86.5229 18.0575 87.2812 18.0575C88.3312 18.0575 89.1129 18.3433 89.6262 18.915C90.1395 19.475 90.3962 20.3267 90.3962 21.47V27H88.9787V21.5575C88.9787 20.7408 88.8154 20.1458 88.4887 19.7725C88.1737 19.3992 87.6604 19.2125 86.9487 19.2125C86.132 19.2125 85.4787 19.4633 84.9887 19.965C84.5104 20.4667 84.2712 21.1258 84.2712 21.9425V27H82.8537ZM97.0101 27.1575C95.6334 27.1575 94.5484 26.7608 93.7551 25.9675C92.9618 25.1625 92.5651 24.0483 92.5651 22.625C92.5651 21.7033 92.7401 20.9042 93.0901 20.2275C93.4401 19.5392 93.9301 19.0083 94.5601 18.635C95.1901 18.25 95.9134 18.0575 96.7301 18.0575C97.5351 18.0575 98.2118 18.2267 98.7601 18.565C99.3084 18.9033 99.7284 19.3875 100.02 20.0175C100.312 20.6358 100.458 21.3708 100.458 22.2225V22.7475H93.6501V21.855H99.5301L99.2326 22.0825C99.2326 21.1492 99.0226 20.42 98.6026 19.895C98.1826 19.37 97.5584 19.1075 96.7301 19.1075C95.8551 19.1075 95.1726 19.4167 94.6826 20.035C94.1926 20.6417 93.9476 21.4642 93.9476 22.5025V22.66C93.9476 23.7567 94.2159 24.5908 94.7526 25.1625C95.3009 25.7225 96.0651 26.0025 97.0451 26.0025C97.5701 26.0025 98.0601 25.9267 98.5151 25.775C98.9818 25.6117 99.4251 25.3492 99.8451 24.9875L100.335 25.985C99.9501 26.3583 99.4601 26.65 98.8651 26.86C98.2818 27.0583 97.6634 27.1575 97.0101 27.1575ZM110.515 27.1575C109.745 27.1575 109.068 26.9767 108.485 26.615C107.901 26.2417 107.446 25.7167 107.12 25.04C106.805 24.3633 106.647 23.5525 106.647 22.6075C106.647 21.6508 106.805 20.8342 107.12 20.1575C107.446 19.4808 107.901 18.9617 108.485 18.6C109.068 18.2383 109.745 18.0575 110.515 18.0575C111.308 18.0575 111.99 18.2558 112.562 18.6525C113.145 19.0492 113.536 19.5858 113.735 20.2625H113.525V14.12H114.942V27H113.542V24.9H113.735C113.548 25.6 113.163 26.1542 112.58 26.5625C111.996 26.9592 111.308 27.1575 110.515 27.1575ZM110.812 26.0025C111.64 26.0025 112.305 25.7167 112.807 25.145C113.309 24.5617 113.56 23.7158 113.56 22.6075C113.56 21.4875 113.309 20.6417 112.807 20.07C112.305 19.4867 111.64 19.195 110.812 19.195C109.984 19.195 109.319 19.4867 108.817 20.07C108.327 20.6417 108.082 21.4875 108.082 22.6075C108.082 23.7158 108.327 24.5617 108.817 25.145C109.319 25.7167 109.984 26.0025 110.812 26.0025ZM116.493 27L120.43 22.1175V22.8175L116.703 18.215H118.418L121.235 21.8025H120.728L123.528 18.215H125.225L121.55 22.8V22.1525L125.453 27H123.72L120.71 23.1675H121.235L118.19 27H116.493ZM129.222 27L125.967 18.215H127.472L130.185 25.95H129.73L132.53 18.215H133.755L136.502 25.95H136.065L138.795 18.215H140.23L136.957 27H135.592L132.757 19.1425H133.457L130.605 27H129.222ZM147.105 27V19.3175H145.39V18.215H147.49L147.105 18.5825V17.1125C147.105 16.1208 147.356 15.3625 147.858 14.8375C148.359 14.3125 149.077 14.05 150.01 14.05C150.243 14.05 150.483 14.0733 150.728 14.12C150.984 14.155 151.194 14.2075 151.358 14.2775V15.45C151.218 15.3917 151.043 15.345 150.833 15.31C150.634 15.2633 150.43 15.24 150.22 15.24C149.858 15.24 149.549 15.3158 149.293 15.4675C149.036 15.6075 148.843 15.8233 148.715 16.115C148.587 16.4067 148.523 16.78 148.523 17.235V18.5125L148.295 18.215H150.973V19.3175H148.523V27H147.105ZM155.82 27.1575C155.039 27.1575 154.356 26.9767 153.773 26.615C153.189 26.2417 152.734 25.7167 152.408 25.04C152.093 24.3633 151.935 23.5525 151.935 22.6075C151.935 21.6508 152.093 20.8342 152.408 20.1575C152.734 19.4808 153.189 18.9617 153.773 18.6C154.356 18.2383 155.039 18.0575 155.82 18.0575C156.614 18.0575 157.296 18.2617 157.868 18.67C158.451 19.0667 158.836 19.6092 159.023 20.2975H158.813L159.005 18.215H160.37C160.335 18.5533 160.3 18.8975 160.265 19.2475C160.242 19.5858 160.23 19.9183 160.23 20.245V27H158.813V24.935H159.005C158.819 25.6233 158.434 26.1658 157.85 26.5625C157.267 26.9592 156.59 27.1575 155.82 27.1575ZM156.1 26.0025C156.94 26.0025 157.605 25.7167 158.095 25.145C158.585 24.5617 158.83 23.7158 158.83 22.6075C158.83 21.4875 158.585 20.6417 158.095 20.07C157.605 19.4867 156.94 19.195 156.1 19.195C155.272 19.195 154.607 19.4867 154.105 20.07C153.615 20.6417 153.37 21.4875 153.37 22.6075C153.37 23.7158 153.615 24.5617 154.105 25.145C154.607 25.7167 155.272 26.0025 156.1 26.0025ZM162.971 27V20.245C162.971 19.9183 162.953 19.5858 162.918 19.2475C162.895 18.8975 162.866 18.5533 162.831 18.215H164.196L164.371 20.14H164.161C164.394 19.475 164.762 18.9617 165.263 18.6C165.777 18.2383 166.395 18.0575 167.118 18.0575C167.853 18.0575 168.448 18.2325 168.903 18.5825C169.37 18.9325 169.685 19.475 169.848 20.21H169.586C169.808 19.545 170.198 19.02 170.758 18.635C171.318 18.25 171.972 18.0575 172.718 18.0575C173.687 18.0575 174.416 18.3375 174.906 18.8975C175.396 19.4458 175.641 20.315 175.641 21.505V27H174.223V21.5925C174.223 20.7642 174.078 20.1633 173.786 19.79C173.494 19.405 173.028 19.2125 172.386 19.2125C171.651 19.2125 171.068 19.4692 170.636 19.9825C170.216 20.4842 170.006 21.1608 170.006 22.0125V27H168.588V21.5925C168.588 20.7642 168.443 20.1633 168.151 19.79C167.859 19.405 167.393 19.2125 166.751 19.2125C166.016 19.2125 165.438 19.4692 165.018 19.9825C164.598 20.4842 164.388 21.1608 164.388 22.0125V27H162.971ZM178.335 27V18.215H179.752V27H178.335ZM178.16 16.22V14.6275H179.91V16.22H178.16ZM182.505 27V14.12H183.922V27H182.505ZM186.324 30.9725L185.992 29.8C186.54 29.6717 186.995 29.52 187.357 29.345C187.73 29.1817 188.039 28.96 188.284 28.68C188.529 28.4 188.739 28.05 188.914 27.63L189.369 26.5975L189.334 27.1925L185.502 18.215H187.042L190.209 25.9325H189.754L192.887 18.215H194.374L190.314 27.735C190.081 28.295 189.824 28.7617 189.544 29.135C189.264 29.52 188.961 29.8292 188.634 30.0625C188.319 30.3075 187.969 30.5 187.584 30.64C187.199 30.78 186.779 30.8908 186.324 30.9725Z" fill="white"/>
</svg>
