<svg width="430" height="31" viewBox="0 0 430 31" fill="none" xmlns="http://www.w3.org/2000/svg">
<g clip-path="url(#clip0_2289_208)">
<path d="M69.9353 19.9267C69.9353 23.0906 68.796 25.7576 66.5492 27.8572C64.5657 29.7125 62.0986 30.7575 59.2199 30.9652L58.7236 31.0004V26.1666L59.1353 26.1203C60.5678 25.9962 61.9119 25.3744 62.9348 24.3626C64.146 23.1641 64.7587 21.6013 64.7587 19.7158C64.7587 17.8302 64.1204 16.2882 62.8598 15.0689C61.8458 14.079 60.5326 13.4535 59.1258 13.2904L58.7236 13.2393V8.52539L59.2151 8.55895C62.113 8.73792 64.5992 9.81652 66.6034 11.7676C68.8135 13.9248 69.9353 16.6701 69.9353 19.9267Z" fill="#FF37AB"/>
<path d="M51.6625 17.1511C51.338 17.9639 51.1753 18.8324 51.1838 19.7078C51.1838 21.5933 51.7981 23.1561 53.0077 24.3546C54.0318 25.3648 55.3752 25.9863 56.8072 26.1123L57.2205 26.1586V31.0004L56.7226 30.9652C53.8503 30.7575 51.3801 29.7141 49.3934 27.8604C47.1466 25.7624 46.0088 23.0938 46.0088 19.9267C46.0088 16.6701 47.1258 13.9248 49.3407 11.7676C51.345 9.81652 53.8295 8.73153 56.7274 8.55895L57.2205 8.52539V13.2393L56.8184 13.2904C55.4116 13.4538 54.0986 14.0793 53.0843 15.0689C52.4704 15.6559 51.986 16.3652 51.6625 17.1511Z" fill="#48E9CE"/>
<path d="M19.0819 30.1512H13.8574V17.6186C13.8711 16.9424 13.7535 16.27 13.5112 15.6388C13.3052 15.1058 12.9887 14.6227 12.5824 14.2214C12.203 13.8523 11.75 13.5675 11.2532 13.3857C10.7571 13.2052 10.2332 13.1133 9.70532 13.114C8.89889 13.1153 8.09878 13.2564 7.34043 13.5311C6.54894 13.819 5.82766 14.2722 5.22447 14.8606V30.1544H0V9.15433H5.22447L5.26596 10.7171C5.61295 10.3768 6.00297 10.0835 6.42606 9.84464C6.88427 9.57887 7.36483 9.35377 7.86223 9.17191C8.35774 8.99068 8.86749 8.85117 9.38617 8.75484C9.8823 8.66062 10.386 8.61195 10.891 8.60943C11.934 8.60578 12.9702 8.77755 13.9564 9.11758C14.9262 9.45098 15.8158 9.98323 16.5686 10.6804C17.3705 11.4406 17.9959 12.368 18.4005 13.3969C18.8601 14.5101 19.0899 15.83 19.0899 17.3565L19.0819 30.1512Z" fill="white"/>
<path d="M43.9451 19.6163C43.9451 19.9566 43.9276 20.3066 43.8925 20.6709C43.8574 21.0353 43.8127 21.4092 43.7648 21.7895H27.0095C27.2038 22.3983 27.478 22.9787 27.8249 23.5153C28.1723 24.0563 28.6075 24.5354 29.1127 24.9326C29.6327 25.3381 30.2147 25.657 30.8361 25.877C31.5183 26.1139 32.2364 26.2307 32.9584 26.2222C33.9223 26.219 34.8788 26.0532 35.7877 25.7316C36.6533 25.4491 37.4548 24.9984 38.1462 24.4053L41.4478 27.7114C39.9946 28.8055 38.5723 29.5762 37.1808 30.0237C35.7558 30.4775 34.2686 30.7045 32.7733 30.6964C30.5775 30.7231 28.423 30.0971 26.5825 28.8977C24.7419 27.6982 23.2978 25.9792 22.4329 23.9579C21.8589 22.5955 21.5632 21.1317 21.5632 19.653C21.5632 18.1743 21.8589 16.7106 22.4329 15.3482C22.9939 14.0339 23.8071 12.8427 24.8265 11.8423C25.8549 10.8409 27.0606 10.04 28.3818 9.48057C29.7583 8.89565 31.2398 8.59926 32.735 8.60969C34.1899 8.60581 35.6318 8.88362 36.9813 9.42783C38.3084 9.95536 39.5263 10.7247 40.5733 11.6969C41.6563 12.7081 42.5158 13.9352 43.0965 15.2991C43.6773 16.6631 43.9663 18.1337 43.9451 19.6163ZM38.4685 17.5773C38.0944 16.3002 37.3257 15.1746 36.2728 14.3623C35.254 13.5629 33.9941 13.1341 32.6999 13.1462C31.4254 13.1386 30.1867 13.5677 29.1893 14.3623C28.1428 15.1784 27.3786 16.303 27.0047 17.5773H38.4685Z" fill="white"/>
<path d="M91.2235 30.1512H85.999V17.6186C86.0127 16.9424 85.8951 16.27 85.6528 15.6388C85.4468 15.1058 85.1303 14.6227 84.7241 14.2214C84.3441 13.853 83.8913 13.5683 83.3948 13.3857C82.8987 13.2052 82.3748 13.1133 81.8469 13.114C81.0389 13.115 80.2372 13.2561 79.4772 13.5311C78.6871 13.8197 77.967 14.2729 77.3645 14.8606V30.1544H72.1416V9.15432H77.3645L77.4028 10.7171C77.7498 10.3768 78.1398 10.0835 78.5629 9.84463C79.0211 9.57887 79.5016 9.35377 79.999 9.1719C80.4945 8.99047 81.0043 8.85096 81.523 8.75484C82.0191 8.66062 82.5228 8.61195 83.0278 8.60943C84.0708 8.60593 85.107 8.77769 86.0932 9.11757C87.0628 9.45135 87.9524 9.98357 88.7054 10.6804C89.5068 11.4411 90.1321 12.3683 90.5373 13.3968C90.9969 14.5101 91.2267 15.83 91.2267 17.3565L91.2235 30.1512Z" fill="white"/>
<path d="M106.285 29.6801C105.715 30.0347 105.09 30.2923 104.436 30.4423C103.746 30.6102 103.04 30.6954 102.331 30.6964C101.097 30.6964 100.057 30.5451 99.211 30.2425C98.417 29.9762 97.7136 29.4917 97.1813 28.8443C96.6379 28.1385 96.2599 27.3193 96.0754 26.4474C95.8295 25.3263 95.7139 24.1804 95.7307 23.0326V13.8413H92.9717V11.4795C94.5993 10.8266 96.0218 9.74766 97.0903 8.35558C98.1424 6.9707 98.8616 5.17834 99.2477 2.97852H100.952V9.11779H106.25V13.8413H100.952V23.3954C100.938 23.8398 101.006 24.283 101.153 24.7025C101.263 25.0066 101.442 25.2804 101.678 25.5015C101.891 25.6922 102.145 25.8292 102.422 25.9009C102.712 25.976 103.011 26.0131 103.311 26.0112C103.813 25.998 104.313 25.9245 104.798 25.7923C105.342 25.6656 105.85 25.417 106.285 25.0652V29.6801Z" fill="white"/>
<path d="M124.452 11.3337L121.66 15.7664C121.156 15.212 120.589 14.7181 119.971 14.2947C119.43 13.8945 118.778 13.6713 118.104 13.6555C117.723 13.667 117.347 13.7505 116.997 13.9016C116.573 14.0783 116.192 14.3442 115.88 14.6814C115.495 15.0995 115.193 15.5877 114.991 16.1195C114.73 16.8216 114.606 17.5677 114.627 18.3167V30.159H109.396V9.15412H114.621V11.4056C115.174 10.583 115.882 9.87722 116.707 9.3283C117.47 8.84468 118.357 8.59271 119.26 8.60283C120.21 8.61116 121.142 8.86784 121.963 9.34747C122.889 9.87878 123.728 10.5486 124.452 11.3337Z" fill="white"/>
<path d="M131.598 5.48608H126.156V0.0371094H131.598V5.48608ZM131.526 30.1519H126.223V9.11819H131.52L131.526 30.1519Z" fill="white"/>
<path d="M155.223 19.6546C155.23 21.0927 154.977 22.5202 154.478 23.8684C154.008 25.1569 153.301 26.3457 152.394 27.3727C151.497 28.3769 150.409 29.1918 149.194 29.7696C147.921 30.3694 146.529 30.6731 145.122 30.658C144.246 30.6652 143.375 30.5369 142.538 30.2777C141.719 30.0123 140.955 29.5997 140.284 29.0601V30.1499H135.053V0H140.319L140.354 10.1709C141.002 9.66335 141.732 9.27046 142.513 9.00918C143.359 8.71644 144.248 8.56895 145.143 8.57294C146.434 8.57598 147.709 8.86807 148.873 9.42784C150.087 9.99894 151.183 10.7936 152.103 11.7704C153.065 12.7917 153.833 13.9797 154.371 15.2763C154.947 16.6631 155.237 18.1525 155.223 19.6546ZM149.927 19.6546C149.938 18.7516 149.79 17.8536 149.489 17.0021C149.223 16.2441 148.808 15.5467 148.27 14.9503C147.753 14.3849 147.119 13.9389 146.413 13.6432C145.656 13.3319 144.845 13.1769 144.027 13.1878C143.37 13.2055 142.72 13.3219 142.098 13.5329C141.445 13.7256 140.829 14.027 140.276 14.4246V24.522C141.418 25.5638 142.705 26.0847 144.137 26.0847C144.933 26.0894 145.721 25.926 146.45 25.6054C147.15 25.304 147.777 24.8549 148.288 24.2887C148.813 23.6926 149.221 23.0024 149.489 22.2545C149.789 21.421 149.937 20.5405 149.927 19.6546Z" fill="white"/>
<path d="M180 19.6162C180 19.9685 179.982 20.3205 179.946 20.6709C179.91 21.0336 179.868 21.4091 179.819 21.7894H163.063C163.259 22.3981 163.534 22.9783 163.88 23.5152C164.228 24.0563 164.663 24.5353 165.168 24.9326C165.688 25.3388 166.27 25.6577 166.891 25.877C167.574 26.1141 168.292 26.2309 169.014 26.2221C169.978 26.2188 170.934 26.053 171.843 25.7315C172.708 25.4483 173.51 24.9977 174.202 24.4053L177.503 27.7114C176.051 28.8012 174.63 29.5698 173.239 30.0172C171.814 30.4735 170.326 30.7027 168.83 30.6963C165.854 30.7115 162.993 29.5498 160.867 27.4637C159.857 26.4596 159.05 25.2691 158.491 23.9578C157.916 22.5957 157.62 21.1319 157.62 19.653C157.62 18.1741 157.916 16.7103 158.491 15.3481C159.052 14.0338 159.866 12.8426 160.885 11.8423C161.914 10.8415 163.12 10.0407 164.44 9.48052C165.817 8.8956 167.299 8.59922 168.795 8.60964C170.248 8.60638 171.688 8.88418 173.035 9.42778C174.363 9.95454 175.581 10.724 176.627 11.6969C177.711 12.7076 178.571 13.9346 179.152 15.2986C179.733 16.6627 180.022 18.1335 180 19.6162ZM174.524 17.5773C174.149 16.3007 173.38 15.1755 172.328 14.3622C171.309 13.5631 170.049 13.1343 168.755 13.1462C167.481 13.1385 166.242 13.5676 165.245 14.3622C164.198 15.1782 163.433 16.3028 163.058 17.5773H174.524Z" fill="white"/>
</g>
<mask id="path-11-inside-1_2289_208" fill="white">
<path d="M196 0H430V31H196V0Z"/>
</mask>
<path d="M196 31H198V0H196H194V31H196Z" fill="#FF37AB" mask="url(#path-11-inside-1_2289_208)"/>
<path d="M213.54 27V14.6625H218.563C219.858 14.6625 220.855 14.9775 221.555 15.6075C222.255 16.2258 222.605 17.0892 222.605 18.1975C222.605 19.2825 222.255 20.1458 221.555 20.7875C220.855 21.4175 219.858 21.7325 218.563 21.7325H214.993V27H213.54ZM214.993 20.525H218.423C219.321 20.525 219.998 20.3208 220.453 19.9125C220.919 19.5042 221.153 18.9325 221.153 18.1975C221.153 17.4508 220.919 16.8733 220.453 16.465C219.998 16.0567 219.321 15.8525 218.423 15.8525H214.993V20.525ZM227.697 27.1575C226.915 27.1575 226.233 26.9767 225.649 26.615C225.066 26.2417 224.611 25.7167 224.284 25.04C223.969 24.3633 223.812 23.5525 223.812 22.6075C223.812 21.6508 223.969 20.8342 224.284 20.1575C224.611 19.4808 225.066 18.9617 225.649 18.6C226.233 18.2383 226.915 18.0575 227.697 18.0575C228.49 18.0575 229.173 18.2617 229.744 18.67C230.328 19.0667 230.713 19.6092 230.899 20.2975H230.689L230.882 18.215H232.247C232.212 18.5533 232.177 18.8975 232.142 19.2475C232.118 19.5858 232.107 19.9183 232.107 20.245V27H230.689V24.935H230.882C230.695 25.6233 230.31 26.1658 229.727 26.5625C229.143 26.9592 228.467 27.1575 227.697 27.1575ZM227.977 26.0025C228.817 26.0025 229.482 25.7167 229.972 25.145C230.462 24.5617 230.707 23.7158 230.707 22.6075C230.707 21.4875 230.462 20.6417 229.972 20.07C229.482 19.4867 228.817 19.195 227.977 19.195C227.148 19.195 226.483 19.4867 225.982 20.07C225.492 20.6417 225.247 21.4875 225.247 22.6075C225.247 23.7158 225.492 24.5617 225.982 25.145C226.483 25.7167 227.148 26.0025 227.977 26.0025ZM234.812 27V20.3325C234.812 19.9825 234.801 19.6267 234.777 19.265C234.766 18.9033 234.742 18.5533 234.707 18.215H236.072L236.247 20.35L236.002 20.3675C236.119 19.8425 236.323 19.4108 236.615 19.0725C236.907 18.7342 237.251 18.4833 237.647 18.32C238.044 18.145 238.458 18.0575 238.89 18.0575C239.065 18.0575 239.217 18.0633 239.345 18.075C239.485 18.0867 239.613 18.1158 239.73 18.1625L239.712 19.4225C239.537 19.3642 239.374 19.3292 239.222 19.3175C239.082 19.2942 238.919 19.2825 238.732 19.2825C238.219 19.2825 237.77 19.405 237.385 19.65C237.012 19.895 236.726 20.21 236.527 20.595C236.341 20.98 236.247 21.3883 236.247 21.82V27H234.812ZM244.781 27.1575C243.918 27.1575 243.259 26.9125 242.804 26.4225C242.349 25.9208 242.121 25.1683 242.121 24.165V19.3175H240.406V18.215H242.121V15.8175L243.539 15.415V18.215H246.059V19.3175H243.539V24.0075C243.539 24.7075 243.655 25.2092 243.889 25.5125C244.134 25.8042 244.495 25.95 244.974 25.95C245.195 25.95 245.394 25.9325 245.569 25.8975C245.744 25.8508 245.901 25.7983 246.041 25.74V26.93C245.878 27 245.68 27.0525 245.446 27.0875C245.225 27.1342 245.003 27.1575 244.781 27.1575ZM255.952 27.1575C255.112 27.1575 254.377 26.9767 253.747 26.615C253.129 26.2417 252.651 25.7167 252.312 25.04C251.974 24.3517 251.805 23.5408 251.805 22.6075C251.805 21.6625 251.974 20.8517 252.312 20.175C252.651 19.4983 253.129 18.9792 253.747 18.6175C254.377 18.2442 255.112 18.0575 255.952 18.0575C256.804 18.0575 257.539 18.2442 258.157 18.6175C258.787 18.9792 259.272 19.4983 259.61 20.175C259.96 20.8517 260.135 21.6625 260.135 22.6075C260.135 23.5408 259.96 24.3517 259.61 25.04C259.272 25.7167 258.787 26.2417 258.157 26.615C257.539 26.9767 256.804 27.1575 255.952 27.1575ZM255.952 26.0025C256.792 26.0025 257.457 25.7167 257.947 25.145C258.437 24.5617 258.682 23.7158 258.682 22.6075C258.682 21.4875 258.432 20.6417 257.93 20.07C257.44 19.4867 256.781 19.195 255.952 19.195C255.124 19.195 254.465 19.4867 253.975 20.07C253.485 20.6417 253.24 21.4875 253.24 22.6075C253.24 23.7158 253.485 24.5617 253.975 25.145C254.465 25.7167 255.124 26.0025 255.952 26.0025ZM262.714 27V19.3175H260.999V18.215H263.099L262.714 18.5825V17.1125C262.714 16.1208 262.965 15.3625 263.467 14.8375C263.969 14.3125 264.686 14.05 265.619 14.05C265.853 14.05 266.092 14.0733 266.337 14.12C266.594 14.155 266.804 14.2075 266.967 14.2775V15.45C266.827 15.3917 266.652 15.345 266.442 15.31C266.244 15.2633 266.039 15.24 265.829 15.24C265.468 15.24 265.159 15.3158 264.902 15.4675C264.645 15.6075 264.453 15.8233 264.324 16.115C264.196 16.4067 264.132 16.78 264.132 17.235V18.5125L263.904 18.215H266.582V19.3175H264.132V27H262.714ZM275.851 27.1575C274.987 27.1575 274.328 26.9125 273.873 26.4225C273.418 25.9208 273.191 25.1683 273.191 24.165V19.3175H271.476V18.215H273.191V15.8175L274.608 15.415V18.215H277.128V19.3175H274.608V24.0075C274.608 24.7075 274.725 25.2092 274.958 25.5125C275.203 25.8042 275.565 25.95 276.043 25.95C276.265 25.95 276.463 25.9325 276.638 25.8975C276.813 25.8508 276.971 25.7983 277.111 25.74V26.93C276.947 27 276.749 27.0525 276.516 27.0875C276.294 27.1342 276.072 27.1575 275.851 27.1575ZM278.854 27V14.12H280.271V20.1575H280.044C280.289 19.4692 280.697 18.95 281.269 18.6C281.852 18.2383 282.523 18.0575 283.281 18.0575C284.331 18.0575 285.113 18.3433 285.626 18.915C286.14 19.475 286.396 20.3267 286.396 21.47V27H284.979V21.5575C284.979 20.7408 284.815 20.1458 284.489 19.7725C284.174 19.3992 283.66 19.2125 282.949 19.2125C282.132 19.2125 281.479 19.4633 280.989 19.965C280.51 20.4667 280.271 21.1258 280.271 21.9425V27H278.854ZM293.01 27.1575C291.633 27.1575 290.548 26.7608 289.755 25.9675C288.962 25.1625 288.565 24.0483 288.565 22.625C288.565 21.7033 288.74 20.9042 289.09 20.2275C289.44 19.5392 289.93 19.0083 290.56 18.635C291.19 18.25 291.913 18.0575 292.73 18.0575C293.535 18.0575 294.212 18.2267 294.76 18.565C295.308 18.9033 295.728 19.3875 296.02 20.0175C296.312 20.6358 296.458 21.3708 296.458 22.2225V22.7475H289.65V21.855H295.53L295.233 22.0825C295.233 21.1492 295.023 20.42 294.603 19.895C294.183 19.37 293.558 19.1075 292.73 19.1075C291.855 19.1075 291.173 19.4167 290.683 20.035C290.193 20.6417 289.948 21.4642 289.948 22.5025V22.66C289.948 23.7567 290.216 24.5908 290.753 25.1625C291.301 25.7225 292.065 26.0025 293.045 26.0025C293.57 26.0025 294.06 25.9267 294.515 25.775C294.982 25.6117 295.425 25.3492 295.845 24.9875L296.335 25.985C295.95 26.3583 295.46 26.65 294.865 26.86C294.282 27.0583 293.663 27.1575 293.01 27.1575ZM306.515 27.1575C305.745 27.1575 305.068 26.9767 304.485 26.615C303.901 26.2417 303.446 25.7167 303.12 25.04C302.805 24.3633 302.647 23.5525 302.647 22.6075C302.647 21.6508 302.805 20.8342 303.12 20.1575C303.446 19.4808 303.901 18.9617 304.485 18.6C305.068 18.2383 305.745 18.0575 306.515 18.0575C307.308 18.0575 307.99 18.2558 308.562 18.6525C309.145 19.0492 309.536 19.5858 309.735 20.2625H309.525V14.12H310.942V27H309.542V24.9H309.735C309.548 25.6 309.163 26.1542 308.58 26.5625C307.996 26.9592 307.308 27.1575 306.515 27.1575ZM306.812 26.0025C307.64 26.0025 308.305 25.7167 308.807 25.145C309.309 24.5617 309.56 23.7158 309.56 22.6075C309.56 21.4875 309.309 20.6417 308.807 20.07C308.305 19.4867 307.64 19.195 306.812 19.195C305.984 19.195 305.319 19.4867 304.817 20.07C304.327 20.6417 304.082 21.4875 304.082 22.6075C304.082 23.7158 304.327 24.5617 304.817 25.145C305.319 25.7167 305.984 26.0025 306.812 26.0025ZM312.493 27L316.43 22.1175V22.8175L312.703 18.215H314.418L317.235 21.8025H316.728L319.528 18.215H321.225L317.55 22.8V22.1525L321.453 27H319.72L316.71 23.1675H317.235L314.19 27H312.493ZM325.222 27L321.967 18.215H323.472L326.185 25.95H325.73L328.53 18.215H329.755L332.502 25.95H332.065L334.795 18.215H336.23L332.957 27H331.592L328.757 19.1425H329.457L326.605 27H325.222ZM343.105 27V19.3175H341.39V18.215H343.49L343.105 18.5825V17.1125C343.105 16.1208 343.356 15.3625 343.858 14.8375C344.359 14.3125 345.077 14.05 346.01 14.05C346.243 14.05 346.483 14.0733 346.728 14.12C346.984 14.155 347.194 14.2075 347.358 14.2775V15.45C347.218 15.3917 347.043 15.345 346.833 15.31C346.634 15.2633 346.43 15.24 346.22 15.24C345.858 15.24 345.549 15.3158 345.293 15.4675C345.036 15.6075 344.843 15.8233 344.715 16.115C344.587 16.4067 344.523 16.78 344.523 17.235V18.5125L344.295 18.215H346.973V19.3175H344.523V27H343.105ZM351.82 27.1575C351.039 27.1575 350.356 26.9767 349.773 26.615C349.189 26.2417 348.734 25.7167 348.408 25.04C348.093 24.3633 347.935 23.5525 347.935 22.6075C347.935 21.6508 348.093 20.8342 348.408 20.1575C348.734 19.4808 349.189 18.9617 349.773 18.6C350.356 18.2383 351.039 18.0575 351.82 18.0575C352.614 18.0575 353.296 18.2617 353.868 18.67C354.451 19.0667 354.836 19.6092 355.023 20.2975H354.813L355.005 18.215H356.37C356.335 18.5533 356.3 18.8975 356.265 19.2475C356.242 19.5858 356.23 19.9183 356.23 20.245V27H354.813V24.935H355.005C354.819 25.6233 354.434 26.1658 353.85 26.5625C353.267 26.9592 352.59 27.1575 351.82 27.1575ZM352.1 26.0025C352.94 26.0025 353.605 25.7167 354.095 25.145C354.585 24.5617 354.83 23.7158 354.83 22.6075C354.83 21.4875 354.585 20.6417 354.095 20.07C353.605 19.4867 352.94 19.195 352.1 19.195C351.272 19.195 350.607 19.4867 350.105 20.07C349.615 20.6417 349.37 21.4875 349.37 22.6075C349.37 23.7158 349.615 24.5617 350.105 25.145C350.607 25.7167 351.272 26.0025 352.1 26.0025ZM358.971 27V20.245C358.971 19.9183 358.953 19.5858 358.918 19.2475C358.895 18.8975 358.866 18.5533 358.831 18.215H360.196L360.371 20.14H360.161C360.394 19.475 360.762 18.9617 361.263 18.6C361.777 18.2383 362.395 18.0575 363.118 18.0575C363.853 18.0575 364.448 18.2325 364.903 18.5825C365.37 18.9325 365.685 19.475 365.848 20.21H365.586C365.808 19.545 366.198 19.02 366.758 18.635C367.318 18.25 367.972 18.0575 368.718 18.0575C369.687 18.0575 370.416 18.3375 370.906 18.8975C371.396 19.4458 371.641 20.315 371.641 21.505V27H370.223V21.5925C370.223 20.7642 370.078 20.1633 369.786 19.79C369.494 19.405 369.028 19.2125 368.386 19.2125C367.651 19.2125 367.068 19.4692 366.636 19.9825C366.216 20.4842 366.006 21.1608 366.006 22.0125V27H364.588V21.5925C364.588 20.7642 364.443 20.1633 364.151 19.79C363.859 19.405 363.393 19.2125 362.751 19.2125C362.016 19.2125 361.438 19.4692 361.018 19.9825C360.598 20.4842 360.388 21.1608 360.388 22.0125V27H358.971ZM374.335 27V18.215H375.752V27H374.335ZM374.16 16.22V14.6275H375.91V16.22H374.16ZM378.505 27V14.12H379.922V27H378.505ZM382.324 30.9725L381.992 29.8C382.54 29.6717 382.995 29.52 383.357 29.345C383.73 29.1817 384.039 28.96 384.284 28.68C384.529 28.4 384.739 28.05 384.914 27.63L385.369 26.5975L385.334 27.1925L381.502 18.215H383.042L386.209 25.9325H385.754L388.887 18.215H390.374L386.314 27.735C386.081 28.295 385.824 28.7617 385.544 29.135C385.264 29.52 384.961 29.8292 384.634 30.0625C384.319 30.3075 383.969 30.5 383.584 30.64C383.199 30.78 382.779 30.8908 382.324 30.9725Z" fill="white"/>
<defs>
<clipPath id="clip0_2289_208">
<rect width="180" height="31" fill="white"/>
</clipPath>
</defs>
</svg>
