<svg width="12" height="23" viewBox="0 0 12 23" fill="none" xmlns="http://www.w3.org/2000/svg">
<path d="M11.2117 11.4013C11.2117 14.5652 10.0723 17.2322 7.82553 19.3319C5.84202 21.1871 3.375 22.2321 0.496274 22.4398L0 22.475V17.6412L0.4117 17.5949C1.84418 17.4708 3.18823 16.849 4.21117 15.8372C5.42234 14.6387 6.03511 13.0759 6.03511 11.1904C6.03511 9.30479 5.39681 7.76278 4.13617 6.54356C3.12213 5.55356 1.80896 4.92811 0.402126 4.76505L0 4.71392V0L0.491487 0.0335572C3.38936 0.212526 5.87553 1.29113 7.87979 3.24222C10.0899 5.39943 11.2117 8.14469 11.2117 11.4013Z" fill="#FF37AB"/>
</svg>
