<svg width="316" height="337" viewBox="0 0 316 337" fill="none" xmlns="http://www.w3.org/2000/svg">
<path d="M25.0002 33.9958C26.2024 37.1843 26.8048 40.5915 26.7735 44.0254C26.7735 51.4222 24.4979 57.5525 20.0184 62.2537C16.2258 66.2166 11.2503 68.6546 5.94682 69.1487L4.41638 69.3301V88.3232L6.26029 88.1883C16.8984 87.3736 26.0468 83.28 33.4046 76.0087C41.7258 67.7811 45.9401 57.3097 45.9401 44.8859C45.9401 32.1108 41.8034 21.3421 33.5998 12.8791C26.1771 5.22532 16.9753 0.969201 6.24248 0.292106L4.41638 0.157227V18.6505L5.90549 18.8529C11.1154 19.4939 15.9784 21.9472 19.7349 25.8295C22.0083 28.1318 23.8019 30.9136 25.0002 33.9958Z" fill="#FF37AB"/>
<path d="M83.9317 54.3276C82.7295 51.139 82.1271 47.7318 82.1584 44.2979C82.1584 36.9012 84.434 30.7709 88.9134 26.0697C92.706 22.1068 97.6816 19.6688 102.985 19.1746L104.516 18.9932L104.516 0.000175476L102.672 0.135063C92.0335 0.949736 82.8851 5.04332 75.5273 12.3147C67.2061 20.5423 62.9918 31.0137 62.9918 43.4374C62.9918 56.2125 67.1285 66.9813 75.3321 75.4443C82.7548 83.098 91.9565 87.3542 102.689 88.0313L104.516 88.1661L104.516 69.6728L103.026 69.4705C97.8165 68.8295 92.9534 66.3762 89.197 62.4939C86.9236 60.1916 85.13 57.4098 83.9317 54.3276Z" fill="#48E9CE"/>
<path d="M30.3684 107.819C30.3684 108.688 30.2219 109.504 29.9288 110.268C29.6357 111.022 29.2274 111.687 28.7041 112.262C28.1807 112.828 27.5526 113.278 26.8198 113.613C26.0975 113.937 25.3072 114.1 24.4488 114.1H19.2044V101.538H24.4488C25.3072 101.538 26.0975 101.706 26.8198 102.041C27.5526 102.376 28.1807 102.826 28.7041 103.391C29.2274 103.956 29.6357 104.621 29.9288 105.385C30.2219 106.149 30.3684 106.96 30.3684 107.819ZM27.9033 107.756C27.9137 107.17 27.8247 106.615 27.6363 106.092C27.4479 105.568 27.1757 105.113 26.8198 104.726C26.4639 104.328 26.0243 104.019 25.5009 103.799C24.9879 103.569 24.407 103.454 23.758 103.454H21.6382V112.027H23.758C24.3965 112.027 24.967 111.922 25.4695 111.713C25.9824 111.493 26.4168 111.195 26.7727 110.818C27.1286 110.431 27.4008 109.98 27.5892 109.468C27.7881 108.944 27.8928 108.374 27.9033 107.756ZM34.2948 103.438H31.9395V101.083H34.2948V103.438ZM34.2634 114.1H31.9709V105.008H34.2634V114.1ZM42.9822 111.556C42.9822 112.006 42.8775 112.409 42.6682 112.765C42.4588 113.11 42.1866 113.403 41.8517 113.644C41.5167 113.875 41.1398 114.047 40.7211 114.162C40.3024 114.288 39.8889 114.351 39.4807 114.351C38.7898 114.351 38.1513 114.225 37.5651 113.974C36.9893 113.712 36.4816 113.299 36.042 112.734L37.408 111.352C37.6802 111.697 37.9942 111.969 38.3501 112.168C38.7061 112.357 39.0881 112.451 39.4964 112.451C39.8523 112.451 40.1454 112.388 40.3757 112.262C40.6164 112.126 40.7368 111.928 40.7368 111.666C40.7368 111.394 40.5693 111.169 40.2344 110.991C39.8994 110.802 39.4283 110.619 38.8212 110.441C38.4653 110.336 38.1199 110.206 37.7849 110.049C37.4499 109.881 37.1516 109.682 36.8899 109.452C36.6282 109.211 36.4188 108.939 36.2618 108.635C36.1048 108.332 36.0263 107.981 36.0263 107.583C36.0263 107.144 36.1257 106.751 36.3246 106.406C36.534 106.05 36.8009 105.757 37.1254 105.526C37.4604 105.286 37.8372 105.102 38.2559 104.977C38.6747 104.851 39.0986 104.788 39.5278 104.788C40.9096 104.788 42.0401 105.312 42.9194 106.359L41.569 107.725C41.3073 107.4 41.009 107.144 40.674 106.955C40.339 106.767 39.9727 106.673 39.5749 106.673C39.4388 106.673 39.2923 106.694 39.1352 106.735C38.9887 106.767 38.8474 106.819 38.7113 106.892C38.5857 106.955 38.481 107.044 38.3973 107.159C38.3135 107.264 38.2716 107.384 38.2716 107.521C38.2716 107.761 38.4287 107.971 38.7427 108.149C39.0672 108.327 39.5278 108.505 40.1245 108.682C40.5118 108.798 40.8781 108.944 41.2236 109.122C41.569 109.3 41.8726 109.509 42.1343 109.75C42.396 109.98 42.6001 110.247 42.7467 110.551C42.9037 110.844 42.9822 111.179 42.9822 111.556ZM52.587 112.734C52.1264 113.257 51.5716 113.655 50.9226 113.927C50.2735 114.199 49.5931 114.335 48.8813 114.335C48.2218 114.335 47.599 114.215 47.0128 113.974C46.4266 113.733 45.9137 113.403 45.474 112.985C45.0448 112.556 44.7046 112.048 44.4534 111.462C44.2022 110.875 44.0765 110.242 44.0765 109.562C44.0765 108.892 44.2022 108.269 44.4534 107.693C44.7046 107.107 45.0448 106.599 45.474 106.17C45.9032 105.741 46.4109 105.406 46.9971 105.165C47.5833 104.914 48.2114 104.788 48.8813 104.788C49.5722 104.788 50.2264 104.914 50.844 105.165C51.4721 105.416 52.0165 105.799 52.477 106.311L50.954 107.866C50.7237 107.562 50.441 107.311 50.1061 107.112C49.7816 106.913 49.3838 106.814 48.9127 106.814C48.5673 106.814 48.2375 106.887 47.9235 107.034C47.6199 107.18 47.3478 107.379 47.107 107.63C46.8767 107.871 46.6935 108.159 46.5574 108.494C46.4214 108.829 46.3533 109.185 46.3533 109.562C46.3533 109.939 46.4214 110.295 46.5574 110.629C46.6935 110.964 46.8767 111.258 47.107 111.509C47.3373 111.75 47.6095 111.943 47.9235 112.09C48.2375 112.236 48.5673 112.31 48.9127 112.31C49.3628 112.31 49.7711 112.205 50.1375 111.996C50.5038 111.776 50.7969 111.498 51.0168 111.163L52.587 112.734ZM63.0569 109.562C63.0569 110.242 62.9313 110.875 62.6801 111.462C62.4288 112.037 62.0834 112.54 61.6437 112.969C61.2041 113.388 60.6859 113.723 60.0893 113.974C59.503 114.215 58.875 114.335 58.205 114.335C57.5351 114.335 56.907 114.215 56.3208 113.974C55.7346 113.723 55.2217 113.383 54.782 112.953C54.3424 112.524 53.9969 112.022 53.7457 111.446C53.4945 110.86 53.3689 110.232 53.3689 109.562C53.3689 108.902 53.4945 108.285 53.7457 107.709C54.0074 107.123 54.3581 106.615 54.7977 106.186C55.2374 105.746 55.7503 105.406 56.3365 105.165C56.9227 104.914 57.5455 104.788 58.205 104.788C58.875 104.788 59.503 104.914 60.0893 105.165C60.6859 105.406 61.2041 105.741 61.6437 106.17C62.0834 106.589 62.4288 107.091 62.6801 107.678C62.9313 108.264 63.0569 108.892 63.0569 109.562ZM60.7958 109.562C60.7958 109.174 60.7278 108.813 60.5917 108.478C60.4556 108.143 60.2672 107.85 60.0264 107.599C59.7962 107.348 59.524 107.154 59.2099 107.018C58.8959 106.872 58.5609 106.798 58.205 106.798C57.8491 106.798 57.5141 106.872 57.2001 107.018C56.8861 107.154 56.6087 107.348 56.3679 107.599C56.1376 107.85 55.9544 108.143 55.8183 108.478C55.6823 108.813 55.6142 109.174 55.6142 109.562C55.6142 109.949 55.6823 110.31 55.8183 110.645C55.9544 110.98 56.1376 111.273 56.3679 111.525C56.6087 111.776 56.8861 111.975 57.2001 112.121C57.5141 112.257 57.8491 112.325 58.205 112.325C58.5609 112.325 58.8959 112.257 59.2099 112.121C59.524 111.975 59.7962 111.776 60.0264 111.525C60.2672 111.273 60.4556 110.98 60.5917 110.645C60.7278 110.31 60.7958 109.949 60.7958 109.562ZM72.816 105.024L69.4087 114.115H67.179L63.756 105.024H66.2369L68.2938 111.116L70.3508 105.024H72.816ZM83.2056 109.546C83.2056 109.693 83.1951 109.844 83.1742 110.001C83.1637 110.158 83.148 110.321 83.1271 110.488H75.8728C75.9566 110.75 76.0717 111.001 76.2183 111.242C76.3753 111.472 76.5637 111.676 76.7835 111.854C77.0033 112.022 77.2493 112.158 77.5215 112.262C77.8041 112.357 78.1129 112.404 78.4479 112.404C78.8562 112.404 79.2644 112.336 79.6727 112.2C80.0809 112.053 80.4211 111.859 80.6933 111.619L82.1222 113.048C81.4941 113.519 80.8765 113.854 80.2693 114.053C79.6727 114.241 79.0394 114.335 78.3694 114.335C77.689 114.335 77.0505 114.21 76.4538 113.958C75.8676 113.707 75.3547 113.367 74.915 112.938C74.4858 112.508 74.1456 112.006 73.8944 111.43C73.6431 110.844 73.5175 110.221 73.5175 109.562C73.5175 108.902 73.6431 108.285 73.8944 107.709C74.1456 107.123 74.491 106.615 74.9307 106.186C75.3704 105.757 75.8833 105.416 76.4695 105.165C77.0557 104.914 77.6838 104.788 78.3537 104.788C78.9922 104.788 79.6046 104.909 80.1908 105.15C80.777 105.38 81.2952 105.704 81.7453 106.123C82.1954 106.542 82.5513 107.044 82.813 107.63C83.0747 108.206 83.2056 108.845 83.2056 109.546ZM80.8346 108.667C80.6566 108.091 80.3374 107.63 79.8768 107.285C79.4267 106.929 78.9137 106.751 78.338 106.751C77.7727 106.751 77.265 106.929 76.8149 107.285C76.3648 107.63 76.0508 108.091 75.8728 108.667H80.8346ZM91.1432 105.966L89.9342 107.882C89.7144 107.641 89.4684 107.432 89.1962 107.254C88.9345 107.065 88.6676 106.971 88.3954 106.971C88.2489 106.971 88.0866 107.008 87.9087 107.081C87.7412 107.144 87.5789 107.254 87.4219 107.411C87.2754 107.568 87.1497 107.777 87.0451 108.039C86.9404 108.29 86.888 108.604 86.888 108.981V114.1H84.6113V105.024H86.888V105.997C87.1602 105.61 87.4585 105.312 87.783 105.102C88.118 104.893 88.4896 104.788 88.8979 104.788C89.2957 104.788 89.683 104.898 90.0598 105.118C90.4471 105.328 90.8083 105.61 91.1432 105.966Z" fill="white"/>
<path d="M168.508 60.2441C168.891 59.8609 168.891 59.2395 168.508 58.8562L162.262 52.6109C161.879 52.2276 161.258 52.2276 160.874 52.6109C160.491 52.9941 160.491 53.6155 160.874 53.9987L166.426 59.5502L160.874 65.1016C160.491 65.4849 160.491 66.1062 160.874 66.4895C161.258 66.8727 161.879 66.8727 162.262 66.4895L168.508 60.2441ZM148.186 59.5502V60.5315H167.814V59.5502V58.5688H148.186V59.5502Z" fill="#48E9CE"/>
<path d="M238.64 33.996C239.954 37.1846 240.612 40.5918 240.578 44.0257C240.578 51.4224 238.091 57.5527 233.196 62.2539C229.051 66.2168 223.614 68.6548 217.818 69.149L216.146 69.3304V88.3234L218.161 88.1885C229.786 87.3739 239.784 83.2803 247.825 76.0089C256.918 67.7813 261.524 57.3099 261.524 44.8862C261.524 32.1111 257.003 21.3423 248.038 12.8793C239.926 5.22556 229.87 0.969445 218.141 0.292351L216.146 0.157471V18.6508L217.773 18.8531C223.466 19.4941 228.781 21.9474 232.886 25.8297C235.371 28.132 237.331 30.9138 238.64 33.996Z" fill="#FF37AB"/>
<path d="M284.428 54.3275C283.114 51.1389 282.456 47.7317 282.49 44.2978C282.49 36.901 284.977 30.7708 289.872 26.0695C294.017 22.1067 299.454 19.6687 305.25 19.1745L306.922 18.9931L306.922 5.34058e-05L304.907 0.134941C293.282 0.949614 283.284 5.0432 275.243 12.3145C266.15 20.5422 261.544 31.0136 261.544 43.4373C261.544 56.2124 266.065 66.9812 275.03 75.4442C283.142 83.0979 293.198 87.354 304.927 88.0311L306.922 88.166L306.922 69.6727L305.295 69.4704C299.602 68.8294 294.287 66.3761 290.182 62.4937C287.698 60.1915 285.738 57.4096 284.428 54.3275Z" fill="#48E9CE"/>
<path d="M246.576 107.819C246.576 108.688 246.429 109.505 246.136 110.269C245.843 111.022 245.435 111.687 244.911 112.263C244.388 112.828 243.76 113.278 243.027 113.613C242.305 113.938 241.514 114.1 240.656 114.1H235.412V101.538H240.656C241.514 101.538 242.305 101.706 243.027 102.041C243.76 102.376 244.388 102.826 244.911 103.391C245.435 103.957 245.843 104.621 246.136 105.385C246.429 106.15 246.576 106.961 246.576 107.819ZM244.11 107.756C244.121 107.17 244.032 106.615 243.844 106.092C243.655 105.569 243.383 105.113 243.027 104.726C242.671 104.328 242.231 104.019 241.708 103.8C241.195 103.569 240.614 103.454 239.965 103.454H237.845V112.027H239.965C240.604 112.027 241.174 111.923 241.677 111.713C242.19 111.493 242.624 111.195 242.98 110.818C243.336 110.431 243.608 109.981 243.796 109.468C243.995 108.945 244.1 108.374 244.11 107.756ZM257.521 109.546C257.521 109.693 257.51 109.845 257.489 110.002C257.479 110.159 257.463 110.321 257.442 110.489H250.188C250.272 110.75 250.387 111.001 250.533 111.242C250.69 111.473 250.879 111.677 251.099 111.855C251.318 112.022 251.564 112.158 251.837 112.263C252.119 112.357 252.428 112.404 252.763 112.404C253.171 112.404 253.58 112.336 253.988 112.2C254.396 112.053 254.736 111.86 255.008 111.619L256.437 113.048C255.809 113.519 255.192 113.854 254.584 114.053C253.988 114.241 253.354 114.336 252.685 114.336C252.004 114.336 251.366 114.21 250.769 113.959C250.183 113.707 249.67 113.367 249.23 112.938C248.801 112.509 248.461 112.006 248.21 111.431C247.958 110.844 247.833 110.222 247.833 109.562C247.833 108.903 247.958 108.285 248.21 107.709C248.461 107.123 248.806 106.615 249.246 106.186C249.685 105.757 250.198 105.417 250.785 105.166C251.371 104.914 251.999 104.789 252.669 104.789C253.307 104.789 253.92 104.909 254.506 105.15C255.092 105.38 255.61 105.705 256.06 106.123C256.511 106.542 256.866 107.045 257.128 107.631C257.39 108.207 257.521 108.845 257.521 109.546ZM255.15 108.667C254.972 108.091 254.653 107.631 254.192 107.285C253.742 106.929 253.229 106.752 252.653 106.752C252.088 106.752 251.58 106.929 251.13 107.285C250.68 107.631 250.366 108.091 250.188 108.667H255.15ZM263.982 103.14C263.763 103.056 263.569 103.004 263.401 102.983C263.234 102.952 263.051 102.936 262.852 102.936C262.412 102.936 262.098 103.035 261.91 103.234C261.732 103.433 261.643 103.794 261.643 104.318V105.04H263.072V107.018H261.643V114.1H259.397V107.018H258.298V105.04H259.397V104.349C259.397 103.208 259.607 102.339 260.026 101.743C260.455 101.146 261.203 100.848 262.271 100.848C262.878 100.848 263.449 100.921 263.982 101.067V103.14ZM267.047 103.438H264.692V101.083H267.047V103.438ZM267.016 114.1H264.723V105.009H267.016V114.1ZM277.352 114.1H275.091V108.683C275.091 108.358 275.039 108.076 274.934 107.835C274.84 107.584 274.709 107.38 274.541 107.223C274.374 107.055 274.18 106.935 273.96 106.861C273.751 106.778 273.531 106.736 273.301 106.736C272.955 106.736 272.615 106.799 272.28 106.924C271.945 107.039 271.642 107.228 271.37 107.489V114.1H269.093V105.024H271.37V105.699C271.506 105.563 271.673 105.438 271.872 105.323C272.071 105.207 272.275 105.113 272.484 105.04C272.704 104.956 272.924 104.893 273.144 104.852C273.374 104.81 273.594 104.789 273.803 104.789C274.264 104.789 274.704 104.862 275.122 105.009C275.551 105.155 275.928 105.38 276.253 105.684C276.588 105.987 276.855 106.38 277.054 106.861C277.252 107.343 277.352 107.913 277.352 108.573V114.1ZM288.449 109.546C288.449 109.693 288.439 109.845 288.418 110.002C288.407 110.159 288.392 110.321 288.371 110.489H281.116C281.2 110.75 281.315 111.001 281.462 111.242C281.619 111.473 281.807 111.677 282.027 111.855C282.247 112.022 282.493 112.158 282.765 112.263C283.048 112.357 283.356 112.404 283.691 112.404C284.1 112.404 284.508 112.336 284.916 112.2C285.324 112.053 285.665 111.86 285.937 111.619L287.366 113.048C286.738 113.519 286.12 113.854 285.513 114.053C284.916 114.241 284.283 114.336 283.613 114.336C282.933 114.336 282.294 114.21 281.697 113.959C281.111 113.707 280.598 113.367 280.159 112.938C279.729 112.509 279.389 112.006 279.138 111.431C278.887 110.844 278.761 110.222 278.761 109.562C278.761 108.903 278.887 108.285 279.138 107.709C279.389 107.123 279.735 106.615 280.174 106.186C280.614 105.757 281.127 105.417 281.713 105.166C282.299 104.914 282.927 104.789 283.597 104.789C284.236 104.789 284.848 104.909 285.434 105.15C286.021 105.38 286.539 105.705 286.989 106.123C287.439 106.542 287.795 107.045 288.057 107.631C288.318 108.207 288.449 108.845 288.449 109.546ZM286.078 108.667C285.9 108.091 285.581 107.631 285.12 107.285C284.67 106.929 284.157 106.752 283.582 106.752C283.016 106.752 282.509 106.929 282.058 107.285C281.608 107.631 281.294 108.091 281.116 108.667H286.078Z" fill="white"/>
<path d="M49.2716 157.661C48.8883 157.278 48.267 157.278 47.8837 157.661L41.6383 163.906C41.2551 164.289 41.2551 164.911 41.6383 165.294C42.0216 165.677 42.6429 165.677 43.0262 165.294L48.5776 159.743L54.1291 165.294C54.5123 165.677 55.1337 165.677 55.5169 165.294C55.9002 164.911 55.9002 164.289 55.5169 163.906L49.2716 157.661ZM48.5776 177.982H49.559V158.355H48.5776H47.5963V177.982H48.5776Z" fill="#48E9CE"/>
<path d="M266.728 178.676C267.112 179.059 267.733 179.059 268.116 178.676L274.362 172.431C274.745 172.047 274.745 171.426 274.362 171.043C273.978 170.66 273.357 170.66 272.974 171.043L267.422 176.594L261.871 171.043C261.488 170.66 260.866 170.66 260.483 171.043C260.1 171.426 260.1 172.047 260.483 172.431L266.728 178.676ZM267.422 158.355L266.441 158.355L266.441 177.982L267.422 177.982L268.404 177.982L268.404 158.355L267.422 158.355Z" fill="#48E9CE"/>
<circle cx="54.9568" cy="261.575" r="34.6983" stroke="url(#paint0_linear_2152_182)" stroke-width="18.9263"/>
<path d="M37.0617 324.878C37.0617 325.747 36.9152 326.564 36.6221 327.328C36.329 328.081 35.9207 328.746 35.3973 329.322C34.8739 329.887 34.2458 330.337 33.5131 330.672C32.7908 330.997 32.0005 331.159 31.1421 331.159H25.8977V318.598H31.1421C32.0005 318.598 32.7908 318.765 33.5131 319.1C34.2458 319.435 34.8739 319.885 35.3973 320.45C35.9207 321.016 36.329 321.68 36.6221 322.445C36.9152 323.209 37.0617 324.02 37.0617 324.878ZM34.5965 324.816C34.607 324.229 34.518 323.675 34.3296 323.151C34.1412 322.628 33.869 322.172 33.5131 321.785C33.1572 321.387 32.7175 321.078 32.1941 320.859C31.6812 320.628 31.1002 320.513 30.4512 320.513H28.3315V329.086H30.4512C31.0898 329.086 31.6603 328.982 32.1627 328.772C32.6757 328.553 33.1101 328.254 33.466 327.877C33.8219 327.49 34.0941 327.04 34.2825 326.527C34.4814 326.004 34.5861 325.433 34.5965 324.816ZM48.0068 326.606C48.0068 326.752 47.9963 326.904 47.9754 327.061C47.9649 327.218 47.9492 327.38 47.9283 327.548H40.674C40.7577 327.809 40.8729 328.061 41.0194 328.301C41.1765 328.532 41.3649 328.736 41.5847 328.914C41.8045 329.081 42.0505 329.217 42.3227 329.322C42.6053 329.416 42.9141 329.463 43.2491 329.463C43.6574 329.463 44.0656 329.395 44.4739 329.259C44.8821 329.113 45.2223 328.919 45.4945 328.678L46.9233 330.107C46.2953 330.578 45.6777 330.913 45.0705 331.112C44.4739 331.3 43.8405 331.395 43.1706 331.395C42.4902 331.395 41.8516 331.269 41.255 331.018C40.6688 330.767 40.1558 330.426 39.7162 329.997C39.287 329.568 38.9468 329.065 38.6956 328.49C38.4443 327.904 38.3187 327.281 38.3187 326.621C38.3187 325.962 38.4443 325.344 38.6956 324.768C38.9468 324.182 39.2922 323.675 39.7319 323.245C40.1715 322.816 40.6845 322.476 41.2707 322.225C41.8569 321.973 42.4849 321.848 43.1549 321.848C43.7934 321.848 44.4058 321.968 44.992 322.209C45.5782 322.439 46.0964 322.764 46.5465 323.183C46.9966 323.601 47.3525 324.104 47.6142 324.69C47.8759 325.266 48.0068 325.904 48.0068 326.606ZM45.6358 325.726C45.4578 325.15 45.1386 324.69 44.678 324.344C44.2279 323.989 43.7149 323.811 43.1392 323.811C42.5739 323.811 42.0662 323.989 41.6161 324.344C41.166 324.69 40.852 325.15 40.674 325.726H45.6358ZM53.2437 331.112C53.0658 331.196 52.8616 331.264 52.6313 331.316C52.4115 331.368 52.1812 331.395 51.9405 331.395C51.6055 331.395 51.281 331.347 50.9669 331.253C50.6634 331.17 50.3964 331.028 50.1661 330.829C49.9359 330.63 49.7527 330.374 49.6166 330.06C49.4805 329.735 49.4125 329.348 49.4125 328.898V318.127H51.7206V328.505C51.7206 328.882 51.7939 329.144 51.9405 329.291C52.0975 329.427 52.2807 329.495 52.49 329.495C52.7517 329.495 53.0029 329.416 53.2437 329.259V331.112ZM56.7052 320.497H54.35V318.142H56.7052V320.497ZM56.6738 331.159H54.3814V322.068H56.6738V331.159ZM67.1042 322.083L63.6969 331.175H61.4672L58.0442 322.083H60.5251L62.582 328.176L64.639 322.083H67.1042ZM77.4938 326.606C77.4938 326.752 77.4833 326.904 77.4624 327.061C77.4519 327.218 77.4362 327.38 77.4152 327.548H70.161C70.2447 327.809 70.3599 328.061 70.5064 328.301C70.6634 328.532 70.8519 328.736 71.0717 328.914C71.2915 329.081 71.5375 329.217 71.8097 329.322C72.0923 329.416 72.4011 329.463 72.7361 329.463C73.1443 329.463 73.5526 329.395 73.9608 329.259C74.3691 329.113 74.7093 328.919 74.9815 328.678L76.4103 330.107C75.7823 330.578 75.1646 330.913 74.5575 331.112C73.9608 331.3 73.3275 331.395 72.6576 331.395C71.9772 331.395 71.3386 331.269 70.742 331.018C70.1558 330.767 69.6428 330.426 69.2032 329.997C68.774 329.568 68.4338 329.065 68.1826 328.49C67.9313 327.904 67.8057 327.281 67.8057 326.621C67.8057 325.962 67.9313 325.344 68.1826 324.768C68.4338 324.182 68.7792 323.675 69.2189 323.245C69.6585 322.816 70.1715 322.476 70.7577 322.225C71.3439 321.973 71.9719 321.848 72.6419 321.848C73.2804 321.848 73.8928 321.968 74.479 322.209C75.0652 322.439 75.5834 322.764 76.0335 323.183C76.4836 323.601 76.8395 324.104 77.1012 324.69C77.3629 325.266 77.4938 325.904 77.4938 326.606ZM75.1228 325.726C74.9448 325.15 74.6256 324.69 74.165 324.344C73.7148 323.989 73.2019 323.811 72.6262 323.811C72.0609 323.811 71.5532 323.989 71.1031 324.344C70.653 324.69 70.3389 325.15 70.161 325.726H75.1228ZM85.4314 323.025L84.2224 324.941C84.0026 324.7 83.7566 324.491 83.4844 324.313C83.2227 324.125 82.9558 324.03 82.6836 324.03C82.537 324.03 82.3748 324.067 82.1968 324.14C82.0294 324.203 81.8671 324.313 81.7101 324.47C81.5635 324.627 81.4379 324.836 81.3332 325.098C81.2286 325.349 81.1762 325.663 81.1762 326.04V331.159H78.8994V322.083H81.1762V323.057C81.4484 322.67 81.7467 322.371 82.0712 322.162C82.4062 321.953 82.7778 321.848 83.1861 321.848C83.5838 321.848 83.9711 321.958 84.348 322.178C84.7353 322.387 85.0964 322.67 85.4314 323.025Z" fill="white"/>
<path d="M147.492 276.092C147.109 276.476 147.109 277.097 147.492 277.48L153.738 283.726C154.121 284.109 154.742 284.109 155.126 283.726C155.509 283.342 155.509 282.721 155.126 282.338L149.574 276.786L155.126 271.235C155.509 270.852 155.509 270.23 155.126 269.847C154.742 269.464 154.121 269.464 153.738 269.847L147.492 276.092ZM167.814 276.786V275.805H148.186V276.786V277.768H167.814V276.786Z" fill="#48E9CE"/>
<path d="M287.461 251.232C288.737 254.421 289.377 257.828 289.343 261.262C289.343 268.659 286.928 274.789 282.172 279.49C278.146 283.453 272.863 285.891 267.233 286.385L265.608 286.567V305.56L267.566 305.425C278.86 304.61 288.572 300.517 296.383 293.245C305.217 285.018 309.691 274.546 309.691 262.122C309.691 249.347 305.3 238.579 296.59 230.116C288.71 222.462 278.941 218.206 267.547 217.529L265.608 217.394V235.887L267.189 236.089C272.72 236.73 277.883 239.184 281.871 243.066C284.285 245.368 286.189 248.15 287.461 251.232Z" fill="#FF37AB"/>
<path d="M234.627 271.564C233.351 268.376 232.711 264.968 232.744 261.534C232.744 254.138 235.16 248.007 239.916 243.306C243.942 239.343 249.224 236.905 254.854 236.411L256.479 236.23L256.479 217.237L254.522 217.372C243.228 218.186 233.516 222.28 225.704 229.551C216.87 237.779 212.396 248.25 212.396 260.674C212.396 273.449 216.788 284.218 225.497 292.681C233.377 300.335 243.146 304.591 254.54 305.268L256.479 305.403L256.479 286.909L254.898 286.707C249.367 286.066 244.205 283.613 240.217 279.73C237.803 277.428 235.899 274.646 234.627 271.564Z" fill="#48E9CE"/>
<path d="M238.541 325.055C238.541 325.924 238.394 326.741 238.101 327.505C237.808 328.258 237.4 328.923 236.876 329.499C236.353 330.064 235.725 330.514 234.992 330.849C234.27 331.174 233.479 331.336 232.621 331.336H227.377V318.775H232.621C233.479 318.775 234.27 318.942 234.992 319.277C235.725 319.612 236.353 320.062 236.876 320.627C237.4 321.193 237.808 321.857 238.101 322.622C238.394 323.386 238.541 324.197 238.541 325.055ZM236.075 324.993C236.086 324.406 235.997 323.852 235.808 323.328C235.62 322.805 235.348 322.349 234.992 321.962C234.636 321.564 234.196 321.255 233.673 321.036C233.16 320.805 232.579 320.69 231.93 320.69H229.81V329.263H231.93C232.569 329.263 233.139 329.159 233.642 328.949C234.155 328.73 234.589 328.431 234.945 328.054C235.301 327.667 235.573 327.217 235.761 326.704C235.96 326.181 236.065 325.61 236.075 324.993ZM249.486 326.783C249.486 326.929 249.475 327.081 249.454 327.238C249.444 327.395 249.428 327.557 249.407 327.725H242.153C242.237 327.986 242.352 328.238 242.498 328.478C242.655 328.709 242.844 328.913 243.064 329.091C243.283 329.258 243.529 329.394 243.802 329.499C244.084 329.593 244.393 329.64 244.728 329.64C245.136 329.64 245.544 329.572 245.953 329.436C246.361 329.29 246.701 329.096 246.973 328.855L248.402 330.284C247.774 330.755 247.157 331.09 246.549 331.289C245.953 331.477 245.319 331.572 244.649 331.572C243.969 331.572 243.33 331.446 242.734 331.195C242.148 330.944 241.635 330.603 241.195 330.174C240.766 329.745 240.426 329.242 240.174 328.667C239.923 328.081 239.798 327.458 239.798 326.798C239.798 326.139 239.923 325.521 240.174 324.945C240.426 324.359 240.771 323.852 241.211 323.422C241.65 322.993 242.163 322.653 242.75 322.402C243.336 322.15 243.964 322.025 244.634 322.025C245.272 322.025 245.885 322.145 246.471 322.386C247.057 322.616 247.575 322.941 248.025 323.36C248.475 323.778 248.831 324.281 249.093 324.867C249.355 325.443 249.486 326.081 249.486 326.783ZM247.115 325.903C246.937 325.327 246.617 324.867 246.157 324.521C245.707 324.166 245.194 323.988 244.618 323.988C244.053 323.988 243.545 324.166 243.095 324.521C242.645 324.867 242.331 325.327 242.153 325.903H247.115ZM259.245 322.26L255.837 331.352H253.608L250.185 322.26H252.666L254.723 328.353L256.78 322.26H259.245ZM269.634 326.783C269.634 326.929 269.624 327.081 269.603 327.238C269.592 327.395 269.577 327.557 269.556 327.725H262.302C262.385 327.986 262.5 328.238 262.647 328.478C262.804 328.709 262.992 328.913 263.212 329.091C263.432 329.258 263.678 329.394 263.95 329.499C264.233 329.593 264.542 329.64 264.877 329.64C265.285 329.64 265.693 329.572 266.101 329.436C266.51 329.29 266.85 329.096 267.122 328.855L268.551 330.284C267.923 330.755 267.305 331.09 266.698 331.289C266.101 331.477 265.468 331.572 264.798 331.572C264.118 331.572 263.479 331.446 262.882 331.195C262.296 330.944 261.783 330.603 261.344 330.174C260.915 329.745 260.574 329.242 260.323 328.667C260.072 328.081 259.946 327.458 259.946 326.798C259.946 326.139 260.072 325.521 260.323 324.945C260.574 324.359 260.92 323.852 261.359 323.422C261.799 322.993 262.312 322.653 262.898 322.402C263.484 322.15 264.112 322.025 264.782 322.025C265.421 322.025 266.033 322.145 266.62 322.386C267.206 322.616 267.724 322.941 268.174 323.36C268.624 323.778 268.98 324.281 269.242 324.867C269.503 325.443 269.634 326.081 269.634 326.783ZM267.263 325.903C267.085 325.327 266.766 324.867 266.306 324.521C265.855 324.166 265.342 323.988 264.767 323.988C264.201 323.988 263.694 324.166 263.244 324.521C262.794 324.867 262.479 325.327 262.302 325.903H267.263ZM274.871 331.289C274.693 331.373 274.489 331.441 274.259 331.493C274.039 331.545 273.809 331.572 273.568 331.572C273.233 331.572 272.909 331.524 272.594 331.43C272.291 331.347 272.024 331.205 271.794 331.006C271.563 330.807 271.38 330.551 271.244 330.237C271.108 329.912 271.04 329.525 271.04 329.075V318.304H273.348V328.682C273.348 329.059 273.421 329.321 273.568 329.468C273.725 329.604 273.908 329.672 274.118 329.672C274.379 329.672 274.63 329.593 274.871 329.436V331.289ZM285.351 326.798C285.351 327.479 285.226 328.112 284.975 328.698C284.723 329.274 284.378 329.776 283.938 330.206C283.499 330.624 282.981 330.959 282.384 331.21C281.798 331.451 281.17 331.572 280.5 331.572C279.83 331.572 279.202 331.451 278.615 331.21C278.029 330.959 277.516 330.619 277.077 330.19C276.637 329.761 276.292 329.258 276.04 328.682C275.789 328.096 275.663 327.468 275.663 326.798C275.663 326.139 275.789 325.521 276.04 324.945C276.302 324.359 276.653 323.852 277.092 323.422C277.532 322.983 278.045 322.642 278.631 322.402C279.217 322.15 279.84 322.025 280.5 322.025C281.17 322.025 281.798 322.15 282.384 322.402C282.981 322.642 283.499 322.977 283.938 323.407C284.378 323.825 284.723 324.328 284.975 324.914C285.226 325.5 285.351 326.128 285.351 326.798ZM283.09 326.798C283.09 326.411 283.022 326.05 282.886 325.715C282.75 325.38 282.562 325.087 282.321 324.835C282.091 324.584 281.819 324.391 281.505 324.255C281.19 324.108 280.856 324.035 280.5 324.035C280.144 324.035 279.809 324.108 279.495 324.255C279.181 324.391 278.903 324.584 278.662 324.835C278.432 325.087 278.249 325.38 278.113 325.715C277.977 326.05 277.909 326.411 277.909 326.798C277.909 327.186 277.977 327.547 278.113 327.882C278.249 328.217 278.432 328.51 278.662 328.761C278.903 329.012 279.181 329.211 279.495 329.358C279.809 329.494 280.144 329.562 280.5 329.562C280.856 329.562 281.19 329.494 281.505 329.358C281.819 329.211 282.091 329.012 282.321 328.761C282.562 328.51 282.75 328.217 282.886 327.882C283.022 327.547 283.09 327.186 283.09 326.798ZM295.487 326.814C295.487 327.452 295.377 328.06 295.158 328.635C294.948 329.211 294.65 329.719 294.263 330.158C293.875 330.588 293.415 330.933 292.881 331.195C292.347 331.446 291.761 331.572 291.122 331.572C290.725 331.572 290.353 331.514 290.007 331.399C289.662 331.294 289.338 331.121 289.034 330.881L289.05 335.277H286.757V322.245H289.05V322.716C289.311 322.506 289.62 322.339 289.976 322.213C290.342 322.088 290.725 322.025 291.122 322.025C291.677 322.025 292.216 322.15 292.74 322.402C293.263 322.642 293.729 322.977 294.137 323.407C294.545 323.836 294.87 324.343 295.111 324.93C295.362 325.505 295.487 326.134 295.487 326.814ZM293.179 326.83C293.179 326.4 293.116 326.013 292.991 325.668C292.865 325.322 292.687 325.029 292.457 324.788C292.237 324.537 291.97 324.349 291.656 324.223C291.353 324.087 291.012 324.019 290.636 324.019C290.395 324.019 290.117 324.071 289.803 324.176C289.5 324.27 289.243 324.401 289.034 324.569V328.918C289.526 329.368 290.076 329.593 290.683 329.593C291.039 329.593 291.368 329.525 291.672 329.389C291.986 329.253 292.253 329.065 292.473 328.824C292.692 328.573 292.865 328.279 292.991 327.944C293.116 327.599 293.179 327.227 293.179 326.83Z" fill="white"/>
<defs>
<linearGradient id="paint0_linear_2152_182" x1="54.9568" y1="217.414" x2="54.9568" y2="305.737" gradientUnits="userSpaceOnUse">
<stop stop-color="#FF37AB"/>
<stop offset="1" stop-color="#48E9CE"/>
</linearGradient>
</defs>
</svg>
