<svg width="183" height="92" viewBox="0 0 183 92" fill="none" xmlns="http://www.w3.org/2000/svg">
<path d="M182.259 4.01367V4.01855C180.86 27.6922 172.069 47.9744 156.262 64.3379C138.788 82.418 116.559 91.538 90.1602 91.5381C64.8989 91.5381 43.5633 82.5395 26.6992 64.7656L25.8994 63.9121C11.118 47.9461 2.69125 28.1544 0.825195 5.15039L0.741211 4.05273L0.495117 0.461914L39.0088 0.461914L39.3398 3.44141L39.3408 3.44043C40.3776 15.2934 45.4819 26.4143 53.7803 34.8916H53.7812C63.6344 44.913 76.4802 49.9961 91.9414 49.9971C99.1295 50.0669 106.262 48.7203 112.937 46.0342L112.94 46.0322L113.544 45.7773C119.561 43.1874 125.014 39.4345 129.594 34.7314L130.049 34.2578C138.176 25.8622 143.312 14.9939 144.654 3.35156L145.022 0.461914L182.505 0.461914L182.259 4.01367Z" fill="#FF37AB" stroke="black" stroke-width="0.924242"/>
</svg>
