<svg width="154" height="217" viewBox="0 0 154 217" fill="none" xmlns="http://www.w3.org/2000/svg">
<path d="M154 73.2524C154 93.5797 146.666 110.715 132.204 124.206C119.439 136.125 103.561 142.84 85.0296 144.174L81.8359 144.401V113.344L84.4854 113.045C93.7057 112.248 102.357 108.253 108.941 101.752C116.737 94.0521 120.681 84.0121 120.681 71.8964C120.681 59.7807 116.572 49.8747 108.458 42.0405C101.931 35.6797 93.4793 31.661 84.4242 30.6133L81.8359 30.2866V0L84.9996 0.216027C103.651 1.36643 119.653 8.29619 132.553 20.8309C146.779 34.6904 154 52.3291 154 73.2524Z" fill="#FF37AB"/>
<path d="M36.3892 127.621C34.3001 132.843 33.2533 138.424 33.3076 144.048C33.3076 156.162 37.2616 166.204 45.0472 173.904C51.6383 180.395 60.2856 184.388 69.5028 185.197L72.1627 185.495V216.598L68.9586 216.371C50.471 215.036 34.5717 208.333 21.7841 196.423C7.32211 182.943 0 165.798 0 145.448C0 124.525 7.1893 106.886 21.4456 93.0269C34.21 80.5335 51.1418 73.1938 68.9898 72.4172L72.1627 72.2012V102.488L69.5744 102.816C60.52 103.866 52.0686 107.884 45.5406 114.243C41.5889 118.015 38.4715 122.572 36.3892 127.621Z" fill="#48E9CE"/>
</svg>
